<mxfile host="app.diagrams.net" modified="2023-07-18T05:05:42.973Z" agent="Mozilla/5.0 (X11; Linux x86_64) AppleWebKit/537.36 (KHTML, like Gecko) Falkon/23.04.3 QtWebEngine/5.15.14 Chrome/87.0.4280.144 Safari/537.36" version="21.6.2" etag="GqX6T_gOP2TLlgfYe4X3" type="github">
  <diagram name="Seite-1" id="1Ez4J6viLkPb0gQq7Ii2">
    <mxGraphModel>
      <root>
        <mxCell id="0" />
        <mxCell id="1" parent="0" />
      </root>
    </mxGraphModel>
  </diagram>
</mxfile>
